<svg width="32" height="33" viewBox="0 0 32 33" fill="none" xmlns="http://www.w3.org/2000/svg">
<path d="M16 0.810059C7.19999 0.810059 0 8.02181 0 16.904C0 24.9349 5.85599 31.6005 13.504 32.8052V21.5619H9.43999V16.904H13.504V13.3543C13.504 9.32282 15.888 7.10629 19.552 7.10629C21.296 7.10629 23.12 7.41146 23.12 7.41146V11.3787H21.104C19.12 11.3787 18.496 12.6155 18.496 13.8844V16.904H22.944L22.224 21.5619H18.496V32.8052C22.2663 32.2074 25.6995 30.2763 28.1758 27.3603C30.6522 24.4444 32.0085 20.7358 32 16.904C32 8.02181 24.8 0.810059 16 0.810059Z" fill="#E5E5E5"/>
</svg>
