<svg width="32" height="33" viewBox="0 0 32 33" fill="none" xmlns="http://www.w3.org/2000/svg">
<path fill-rule="evenodd" clip-rule="evenodd" d="M9.40364 0.904198C11.1098 0.827175 11.6538 0.810059 16 0.810059C20.3462 0.810059 20.8902 0.828601 22.5949 0.904198C24.2996 0.979795 25.4633 1.24652 26.4815 1.63307C27.5476 2.02817 28.5149 2.64578 29.3149 3.44454C30.1295 4.22761 30.7578 5.17471 31.1593 6.22165C31.5549 7.2201 31.8255 8.36119 31.904 10.03C31.9825 11.706 32 12.2394 32 16.5C32 20.7619 31.9811 21.2954 31.904 22.9685C31.8269 24.6373 31.5549 25.7784 31.1593 26.7769C30.7578 27.8239 30.1284 28.7726 29.3149 29.5568C28.5149 30.3556 27.5476 30.9718 26.4815 31.3655C25.4633 31.7534 24.2996 32.0187 22.5978 32.0957C20.8902 32.1728 20.3462 32.1899 16 32.1899C11.6538 32.1899 11.1098 32.1713 9.40364 32.0957C7.70182 32.0201 6.53818 31.7534 5.52 31.3655C4.45225 30.9717 3.48483 30.3545 2.68509 29.5568C1.8711 28.7733 1.24119 27.8251 0.839273 26.7783C0.445091 25.7798 0.174545 24.6388 0.096 22.9699C0.0174545 21.294 0 20.7605 0 16.5C0 12.238 0.0189091 11.7046 0.096 10.0329C0.173091 8.36119 0.445091 7.2201 0.839273 6.22165C1.24178 5.17482 1.87217 4.22663 2.68655 3.44311C3.48515 2.64507 4.4516 2.02737 5.51855 1.63307C6.53673 1.24652 7.70182 0.981221 9.40364 0.904198ZM22.4655 3.72838C20.7782 3.65279 20.272 3.6371 16 3.6371C11.728 3.6371 11.2218 3.65279 9.53455 3.72838C7.97382 3.79827 7.12727 4.05359 6.56291 4.26897C5.81673 4.55424 5.28291 4.89229 4.72291 5.44144C4.19207 5.94787 3.78354 6.56438 3.52727 7.24578C3.30764 7.7992 3.04727 8.62934 2.976 10.1598C2.89891 11.8144 2.88291 12.3108 2.88291 16.5C2.88291 20.6892 2.89891 21.1855 2.976 22.8401C3.04727 24.3706 3.30764 25.2007 3.52727 25.7542C3.78327 26.4345 4.192 27.0522 4.72291 27.5585C5.23927 28.0791 5.86909 28.4799 6.56291 28.731C7.12727 28.9464 7.97382 29.2017 9.53455 29.2716C11.2218 29.3472 11.7265 29.3628 16 29.3628C20.2735 29.3628 20.7782 29.3472 22.4655 29.2716C24.0262 29.2017 24.8727 28.9464 25.4371 28.731C26.1833 28.4457 26.7171 28.1077 27.2771 27.5585C27.808 27.0522 28.2167 26.4345 28.4727 25.7542C28.6924 25.2007 28.9527 24.3706 29.024 22.8401C29.1011 21.1855 29.1171 20.6892 29.1171 16.5C29.1171 12.3108 29.1011 11.8144 29.024 10.1598C28.9527 8.62934 28.6924 7.7992 28.4727 7.24578C28.1818 6.51406 27.8371 5.99058 27.2771 5.44144C26.7606 4.92092 26.1319 4.52031 25.4371 4.26897C24.8727 4.05359 24.0262 3.79827 22.4655 3.72838ZM13.9564 21.3367C15.0977 21.8026 16.3686 21.8655 17.5519 21.5146C18.7352 21.1638 19.7577 20.4209 20.4445 19.4129C21.1314 18.405 21.4401 17.1944 21.3179 15.9881C21.1957 14.7817 20.6502 13.6544 19.7745 12.7986C19.2163 12.2515 18.5414 11.8327 17.7983 11.5721C17.0552 11.3116 16.2624 11.2158 15.4771 11.2918C14.6917 11.3678 13.9333 11.6135 13.2564 12.0114C12.5796 12.4093 12.0011 12.9494 11.5626 13.5928C11.1242 14.2363 10.8366 14.9671 10.7208 15.7325C10.6049 16.498 10.6635 17.2792 10.8924 18.0198C11.1214 18.7604 11.5149 19.442 12.0447 20.0155C12.5745 20.5891 13.2274 21.0403 13.9564 21.3367ZM10.1847 10.7974C10.9484 10.0485 11.855 9.45449 12.8528 9.0492C13.8506 8.64392 14.92 8.43532 16 8.43532C17.08 8.43532 18.1494 8.64392 19.1472 9.0492C20.145 9.45449 21.0516 10.0485 21.8153 10.7974C22.5789 11.5463 23.1847 12.4353 23.598 13.4138C24.0113 14.3922 24.224 15.4409 24.224 16.5C24.224 17.559 24.0113 18.6077 23.598 19.5862C23.1847 20.5646 22.5789 21.4537 21.8153 22.2025C20.273 23.715 18.1812 24.5646 16 24.5646C13.8188 24.5646 11.727 23.715 10.1847 22.2025C8.64242 20.6901 7.77596 18.6389 7.77596 16.5C7.77596 14.3611 8.64242 12.3098 10.1847 10.7974ZM26.048 9.63635C26.2372 9.46129 26.3887 9.25078 26.4935 9.01727C26.5983 8.78377 26.6543 8.53202 26.6581 8.27693C26.6619 8.02184 26.6134 7.7686 26.5156 7.5322C26.4178 7.2958 26.2726 7.08105 26.0887 6.90065C25.9047 6.72026 25.6857 6.5779 25.4446 6.48199C25.2036 6.38608 24.9453 6.33858 24.6852 6.3423C24.4251 6.34602 24.1683 6.40088 23.9302 6.50364C23.6921 6.6064 23.4774 6.75496 23.2989 6.94054C22.9517 7.30145 22.7616 7.78083 22.769 8.27693C22.7764 8.77303 22.9806 9.24678 23.3384 9.59761C23.6962 9.94844 24.1793 10.1487 24.6852 10.156C25.1911 10.1632 25.68 9.9768 26.048 9.63635Z" fill="#E5E5E5"/>
</svg>
